<svg width="96" height="96" viewBox="0 0 96 96" fill="none" xmlns="http://www.w3.org/2000/svg">
  <path d="M48 12C65.6731 12 80 26.3269 80 44C80 61.6731 65.6731 76 48 76C30.3269 76 16 61.6731 16 44C16 26.3269 30.3269 12 48 12ZM48 20C34.7452 20 24 30.7452 24 44C24 57.2548 34.7452 68 48 68C61.2548 68 72 57.2548 72 44C72 30.7452 61.2548 20 48 20Z" fill="#2E294E"/>
  <path d="M48 28C56.8366 28 64 35.1634 64 44C64 52.8366 56.8366 60 48 60C39.1634 60 32 52.8366 32 44C32 35.1634 39.1634 28 48 28Z" fill="#2E294E"/>
</svg> 